# xmcd CD database file
#
# Track frame offsets:
#	150
#	14740
#	39905
#	63682
#	74859
#	88511
#	110901
#	119828
#	133780
#	151557
#	168022
#	194799
#	209539
#	222104
#	239881
#	246146
#	265461
#
# Disc length: 3998 seconds
#
# Revision: 0
# Processed by: cddbd v1.5PL3 Copyright (c) Steve Scherf et al.
# Submitted via: CDex 1.51
#
DISCID=140f9c11
DTITLE=Mick Richards - The Great Parable
DYEAR=1998
DGENRE=New Age
TTITLE0=Home
TTITLE1=Resurrection Dance
TTITLE2=Through God's Eyes
TTITLE3=Freedom Theme
TTITLE4=Chains - Act I
TTITLE5=The Orchard
TTITLE6=Reality Check
TTITLE7=The Attack at Lake Eden
TTITLE8=Fingerprint of God II: Divine Destiny
TTITLE9=True Fiction End Theme
TTITLE10=The Great Parable
TTITLE11=Like A Child
TTITLE12=Chains - Act II
TTITLE13=Into Battle
TTITLE14=The Nation's Rage Theme
TTITLE15=Freedom End Theme
TTITLE16=Bonus Song - True Fiction Remix
EXTD=YEAR: 1998
EXTT0=
EXTT1=
EXTT2=
EXTT3=
EXTT4=
EXTT5=
EXTT6=
EXTT7=
EXTT8=
EXTT9=
EXTT10=
EXTT11=
EXTT12=
EXTT13=
EXTT14=
EXTT15=
EXTT16=
PLAYORDER=
